<svg xmlns="http://www.w3.org/2000/svg" xmlns:xlink="http://www.w3.org/1999/xlink" width="96" height="96" viewBox="0 0 72 72"><defs><clipPath id="b"><path d="M0 0h54v55H0Zm0 0"/></clipPath><clipPath id="c"><use xlink:href="#a"/></clipPath><clipPath id="d"><use xlink:href="#a"/></clipPath><clipPath id="e"><path d="M38 39h34v33H38Zm0 0"/></clipPath><clipPath id="f"><use xlink:href="#a"/></clipPath><clipPath id="g"><use xlink:href="#a"/></clipPath><clipPath id="h"><path d="M7 8h18v18H7Zm0 0"/></clipPath><clipPath id="i"><use xlink:href="#a"/></clipPath><clipPath id="j"><use xlink:href="#a"/></clipPath><path id="a" d="M-8.266 3.922 57.172-9.242 73 69.434 7.559 82.598Zm0 0"/></defs><g clip-path="url(#b)"><g clip-path="url(#c)"><g clip-path="url(#d)"><path fill="#487cff" fill-rule="evenodd" d="M7.84 9.363C17.844-1.347 34.633-1.918 45.344 8.082s11.281 26.793 1.281 37.504-26.793 11.281-37.504 1.281S-2.16 20.074 7.84 9.363zm3.37 3.149c8.267-8.848 22.138-9.325 30.985-1.059a21.93 21.93 0 0 1 1.059 30.985c-8.266 8.847-22.137 9.32-30.984 1.058a21.93 21.93 0 0 1-1.06-30.984zm0 0"/></g></g></g><g clip-path="url(#e)"><g clip-path="url(#f)"><g clip-path="url(#g)"><path fill="#487cff" fill-rule="evenodd" d="m39.063 47.219 8.019-7.985a.66.66 0 0 1 .523-.199.808.808 0 0 1 .543.246L70.855 62.11a.802.802 0 0 1 .243.547.674.674 0 0 1-.2.524l-8.02 7.988a.658.658 0 0 1-.523.195.773.773 0 0 1-.542-.246L39.105 48.29a.793.793 0 0 1-.242-.543.678.678 0 0 1 .2-.527Zm0 0"/></g></g></g><g clip-path="url(#h)"><g clip-path="url(#i)"><g clip-path="url(#j)"><path fill="#487cff" fill-rule="evenodd" d="M7.676 25.074c2.941-6.82 9.636-14.785 16.785-16.996-10.664-.023-17.195 10.79-16.785 16.996Zm0 0"/></g></g></g></svg>