<svg xmlns="http://www.w3.org/2000/svg" xmlns:xlink="http://www.w3.org/1999/xlink" width="256" height="256" version="1.0" viewBox="0 0 72 72"><defs><path id="a" d="M-8.266 3.922 57.172-9.242 73 69.434 7.559 82.598Zm0 0"/><path id="b" d="M21.645 46.86 7.915 21.882l24.972-13.73 13.73 24.976Zm0 0"/></defs><defs><clipPath id="c"><path d="M0 0h54v55H0Zm0 0"/></clipPath><clipPath id="d"><use xlink:href="#a"/></clipPath><clipPath id="e"><use xlink:href="#a"/></clipPath><clipPath id="f"><path d="M38 39h34v33H38Zm0 0"/></clipPath><clipPath id="g"><use xlink:href="#a"/></clipPath><clipPath id="h"><use xlink:href="#a"/></clipPath><clipPath id="i"><path d="M7 8h18v18H7Zm0 0"/></clipPath><clipPath id="j"><use xlink:href="#a"/></clipPath><clipPath id="k"><use xlink:href="#a"/></clipPath><clipPath id="l"><path d="M13 12h25v30H13Zm0 0"/></clipPath><clipPath id="m"><use xlink:href="#b"/></clipPath><clipPath id="n"><use xlink:href="#b"/></clipPath></defs><g clip-path="url(#c)"><g clip-path="url(#d)"><g clip-path="url(#e)"><path fill="#ff4848" fill-rule="evenodd" d="M7.84 9.363C17.844-1.347 34.633-1.918 45.344 8.082c10.707 10.004 11.281 26.793 1.281 37.504-10.004 10.707-26.793 11.281-37.504 1.281C-1.586 36.863-2.16 20.074 7.84 9.363Zm3.37 3.149c8.267-8.848 22.138-9.325 30.985-1.059 8.848 8.266 9.32 22.137 1.059 30.985-8.266 8.847-22.137 9.32-30.984 1.058-8.848-8.266-9.32-22.137-1.06-30.984Zm0 0"/></g></g></g><g clip-path="url(#f)"><g clip-path="url(#g)"><g clip-path="url(#h)"><path fill="#ff4848" fill-rule="evenodd" d="m39.063 47.219 8.019-7.985a.66.66 0 0 1 .523-.199.808.808 0 0 1 .543.246L70.855 62.11a.802.802 0 0 1 .243.547.674.674 0 0 1-.2.524l-8.02 7.988a.658.658 0 0 1-.523.195.773.773 0 0 1-.542-.246L39.105 48.29a.793.793 0 0 1-.242-.543.678.678 0 0 1 .2-.527Zm0 0"/></g></g></g><g clip-path="url(#i)"><g clip-path="url(#j)"><g clip-path="url(#k)"><path fill="#ff4848" fill-rule="evenodd" d="M7.676 25.074c2.941-6.82 9.636-14.785 16.785-16.996-10.664-.023-17.195 10.79-16.785 16.996Zm0 0"/></g></g></g><g clip-path="url(#l)"><g clip-path="url(#m)"><g clip-path="url(#n)"><path fill="#ff4848" d="M36.902 14.836c-3.566-1.188-7.394-1.149-10.718.133-3.325 1.234-6.137 3.636-7.778 6.652-.828 1.524-1.379 3.106-1.55 4.75a11.099 11.099 0 0 0 .636 4.848c1.059 3.097 3.664 5.601 6.68 6.61.746.23 1.512.374 2.293.413.781.008 1.562-.05 2.324-.246a8.53 8.53 0 0 0 4.02-2.336c.543-.566 1.035-1.195 1.394-1.902.379-.696.637-1.403.75-2.164a6.88 6.88 0 0 0-.887-4.461c-.773-1.352-2.148-2.414-3.609-2.903-1.48-.492-3.207-.234-4.578.653-1.367.875-2.43 2.422-2.477 4.129-.074 1.707.887 3.5 2.532 4.43a5.079 5.079 0 0 1-2.325-1.645 5.346 5.346 0 0 1-1.12-2.746c-.134-1.012.081-2.09.53-3.016a6.87 6.87 0 0 1 1.899-2.457c1.637-1.328 3.922-1.926 6.074-1.445 2.145.492 3.985 1.793 5.235 3.586a9.147 9.147 0 0 1 1.601 6.242 9.453 9.453 0 0 1-.933 3.156c-.45.977-1.079 1.871-1.797 2.68-2.907 3.25-7.77 4.55-11.946 3.172-4.05-1.418-7.332-4.7-8.613-8.735a14.139 14.139 0 0 1-.55-6.21c.171-1.032.406-2.055.8-3.016.383-.977.883-1.852 1.418-2.711 2.156-3.45 5.691-5.89 9.496-6.867 3.82-.977 7.926-.457 11.2 1.406Zm0 0"/></g></g></g></svg>