<svg xmlns="http://www.w3.org/2000/svg" width="640" height="110" version="1.0" viewBox="0 0 480 82.5"><defs><clipPath id="a"><path d="M1.4 12H57v51H1.4Zm0 0"/></clipPath><clipPath id="b"><path d="M350.6 2.7H478v76.8H350.6Zm0 0"/></clipPath></defs><g clip-path="url(#a)"><path fill="#487cff" d="M34.8 12.3c-16.3 0-25.7 5.5-27.5 14.4-.3 1-.4 2-.4 3 0 4.4 2.6 7.6 8.6 9.4l20 5.4c2.5.9 3.3 1.8 3.3 3.1v1c-.7 3.1-4.9 4.7-11.3 4.7-7.4 0-11.7-1.6-11.7-5.1V47H2.3c-.3 1-.4 2-.4 3 0 7.3 6.7 12.5 22.3 12.5 17.5 0 26.4-5.3 28.3-14.2.3-1.2.4-2.3.4-3.4 0-4.3-2.3-7-8-8.7l-20.5-5.8c-2.2-.6-3.4-1.8-3.4-3.5V26c.7-3 4.3-4.5 10.1-4.5 7 0 11.5 2 11.5 5.4l-.1.9H56c.3-1.2.5-2.3.5-3.3 0-8-7.2-12.2-21.7-12.2Zm0 0"/></g><path fill="#487cff" d="M84 26c-14.3 0-24 7-26.4 18.3-.3 1.5-.5 3-.5 4.2 0 8.7 6.8 14 19.2 14 12 0 20.4-4.8 24.4-12.7H87.4a11 11 0 0 1-9.3 4.5c-5.3 0-8.1-2.6-8-7.3h31.6c.3-.9.7-1.7.9-2.7.3-1.5.4-3 .4-4.3 0-8.7-6.6-14-19-14Zm6.2 14.5H71.7c2-4 5.7-6.3 10.5-6.3 4.9 0 7.6 2.3 8 6.3Zm54.5-13.4-2.4 4.5c-2.2-3.6-6.6-5.6-13-5.6-12 0-20 7-22.3 18.3-.5 1.8-.6 3.5-.6 5.1 0 8.2 5 13.1 15.2 13.1 6.3 0 11.6-2 15.4-5.6l.4 4.5h10.2l7.3-34.3Zm-6.3 17.6c-1 5.2-5 8.4-11 8.4-5.3 0-8-2.3-8-6.4 0-.7 0-1.5.3-2.4 1.2-5.6 5.2-8.9 11.4-8.9 5 0 7.7 2.4 7.7 6.3 0 .7 0 1.4-.3 2.2Zm22.2-17.6-7.3 34.3h12.8l4-18.8c1-4.4 4.6-7.2 8.3-7.2 3 0 4.5.6 6.4 1.5l2-9.3c-1.9-1-3.4-1.6-6.6-1.6a13 13 0 0 0-9.2 4l-.8-2.9Zm30.6-13.7 16.8 24-27 24h18.3L215 47.7l9.7 13.7H243l-16.7-24 26.9-24H235l-15.7 13.7-9.8-13.7Zm65.5 0-10.2 48H260l6.7-31.2 24.5 31.2h12l10.1-48h-13.7L293 44.7l-24.5-31.3Zm87.4 21-1.9 9h18.2l-.3 1.6c-3.6 4.5-9.5 7-17.9 7-10.6 0-15.6-4-15.6-10.8 0-1.2.2-2.5.5-3.8 2-9 8.9-14.6 21.3-14.6 8.4 0 13.3 2.5 14.8 7H377c-.5-11-9.3-17.5-26.9-17.5-21.1 0-33.4 9.6-36.8 25.1-.4 2.4-.6 4.5-.6 6.6 0 11.6 8 18.5 24.8 18.5 8.7 0 15.7-1.8 21.2-5.3l.4 4.2h11.2l5.7-27Zm0 0"/><g clip-path="url(#b)"><path fill="#487cff" d="m456 30 1.3-27.3-22.6 15.6-25.6-9.8 7.9 26.3c-5.2 8.1-26 23-26 23 .3-.1 25-13 33.7-21.5L420 20.1l15.8 6 14-9.7-.9 17 13.5 10.2-16.4 4.5-5.6 16-9.3-14.2a477.3 477.3 0 0 1-80.3 24s28-1.7 76.5-17.1l15 23 9.1-26 26.4-7.1Zm0 0"/></g></svg>